# xmcd
#
# Track frame offsets:
#  150
#  14217
#  31918
#  44236
#  62292
#  77888
#  89234
#  101927
#  117300
#  132162
#  145293
#  162569
#  181578
#
# Disc length: 2618 seconds
#
# Revision: 0
# Processed by: cddbd v1.5.1PL0 Copyright (c) Steve Scherf et al.
# Submitted via: AltoMP3_Maker 3.0
#
DISCID=be0a380d
DTITLE=Guatupê and Guaratuba - Em Novo Estilo
DYEAR=1900
DGENRE=
TTITLE0=Nem Ouro, nem prata
TTITLE1=Blusão de Couro
TTITLE2=Anestesiado
TTITLE3=Paixão Recolhida
TTITLE4=O Couro Vai Comer
TTITLE5=Não Avisa Eles
TTITLE6=Paixão Perigosa
TTITLE7=O Saradão
TTITLE8=Água do Leite
TTITLE9=Clareou
TTITLE10=Prato do Dia
TTITLE11=Visita Divina
TTITLE12=O Bom Cabrito Não Berra
EXTD=
EXTT0=
EXTT1=
EXTT2=
EXTT3=
EXTT4=
EXTT5=
EXTT6=
EXTT7=
EXTT8=
EXTT9=
EXTT10=
EXTT11=
EXTT12=
PLAYORDER=
